<svg width="165" height="165" viewBox="0 0 165 165" fill="none" xmlns="http://www.w3.org/2000/svg">
<g clip-path="url(#clip0_61_60)">
<path d="M164.111 110.521C164.111 126.088 155.468 138.708 138.486 138.708H25.7363C8.75464 138.708 0.111328 126.088 0.111328 110.521V54.1458C0.111328 38.5786 8.75464 25.9583 25.7363 25.9583H138.486C155.468 25.9583 164.111 38.5786 164.111 54.1458V110.521Z" fill="#EC1C24"/>
<path d="M33.3496 43.0142L38.8307 54.1457L51.1179 55.9267L42.2337 64.5751L44.3273 76.8239L33.3496 71.0454L22.3692 76.8239L24.4654 64.5751L15.5889 55.9267L27.8556 54.1457L33.3496 43.0142ZM52.6606 33.6304L54.1801 36.7182L57.5985 37.2127L55.1308 39.6189L55.7074 43.0142L52.6606 41.4101L49.6163 43.0142L50.1929 39.6189L47.7277 37.2127L51.1384 36.7182L52.6606 33.6304ZM62.5287 44.7362L64.0509 47.8215L67.4539 48.3186L64.9964 50.7299L65.5756 54.1201L62.5287 52.5186L59.4845 54.1201L60.0611 50.7299L57.5985 48.3186L61.0041 47.8215L62.5287 44.7362ZM62.5287 62.561L64.0509 65.6539L67.4539 66.1485L64.9964 68.5547L65.5756 71.95L62.5287 70.351L59.4845 71.95L60.0611 68.5547L57.5985 66.1485L61.0041 65.6539L62.5287 62.561ZM52.6606 75.0814L54.1801 78.1692L57.5985 78.6612L55.1308 81.0648L55.7074 84.4652L52.6606 82.8714L49.6163 84.4652L50.1929 81.0648L47.7277 78.6612L51.1384 78.1692L52.6606 75.0814Z" fill="#F9CB38"/>
</g>
<defs>
<clipPath id="clip0_61_60">
<rect width="164" height="164" fill="white" transform="translate(0.111328 0.333252)"/>
</clipPath>
</defs>
</svg>
