<svg width="28" height="28" viewBox="0 0 28 28" fill="none" xmlns="http://www.w3.org/2000/svg">
<path d="M24.3706 13.9998C24.3706 11.2494 23.278 8.61155 21.3331 6.66667C19.3882 4.72179 16.7504 3.62917 14 3.62917C11.2495 3.62917 8.61167 4.72179 6.66679 6.66667C4.72191 8.61155 3.62929 11.2494 3.62929 13.9998C3.62929 16.7503 4.72191 19.3881 6.66679 21.333C8.61167 23.2779 11.2495 24.3705 14 24.3705C16.7504 24.3705 19.3882 23.2779 21.3331 21.333C23.278 19.3881 24.3706 16.7503 24.3706 13.9998ZM17.3973 10.7305C17.5347 10.5931 17.6979 10.484 17.8775 10.4096C18.0571 10.3352 18.2496 10.297 18.444 10.297C18.6383 10.297 18.8308 10.3352 19.0104 10.4096C19.19 10.484 19.3532 10.5931 19.4906 10.7305C19.6281 10.868 19.7371 11.0311 19.8115 11.2107C19.8859 11.3903 19.9242 11.5828 19.9242 11.7772C19.9242 11.9716 19.8859 12.164 19.8115 12.3436C19.7371 12.5232 19.6281 12.6864 19.4906 12.8238L15.048 17.2692C14.9105 17.407 14.7471 17.5164 14.5673 17.5911C14.3875 17.6657 14.1947 17.7041 14 17.7041C13.8052 17.7041 13.6125 17.6657 13.4326 17.5911C13.2528 17.5164 13.0894 17.407 12.952 17.2692L8.50796 12.8265L8.40663 12.7132C8.17281 12.4292 8.05315 12.0682 8.07098 11.7008C8.08881 11.3333 8.24285 10.9857 8.50306 10.7257C8.76327 10.4656 9.11101 10.3118 9.47846 10.2942C9.84592 10.2766 10.2068 10.3965 10.4906 10.6305L10.6026 10.7318L14 14.1265L17.3973 10.7305ZM27.3333 13.9998C27.3333 21.3638 21.364 27.3332 14 27.3332C6.63596 27.3332 0.666626 21.3638 0.666626 13.9998C0.666626 6.63584 6.63596 0.666504 14 0.666504C21.364 0.666504 27.3333 6.63584 27.3333 13.9998Z" fill="#9B5398"/>
</svg>
