<svg width="38" height="44" viewBox="0 0 38 44" fill="none" xmlns="http://www.w3.org/2000/svg">
<path fill-rule="evenodd" clip-rule="evenodd" d="M34.3236 2.22449C33.1984 1.09967 31.6726 0.467773 30.0816 0.467773C28.4906 0.467773 26.9647 1.09967 25.8396 2.22449L24.4256 3.64049L34.3256 13.5405L35.7376 12.1265C36.2948 11.5693 36.7369 10.9078 37.0385 10.1798C37.3401 9.45181 37.4953 8.67151 37.4953 7.88349C37.4953 7.09548 37.3401 6.31518 37.0385 5.58716C36.7369 4.85914 36.2948 4.19766 35.7376 3.64049L34.3236 2.22449ZM31.4956 16.3685L21.5956 6.46849L3.41558 24.6505C3.01774 25.0484 2.73983 25.5502 2.61357 26.0985L0.555575 35.0085C0.478893 35.3393 0.487689 35.6841 0.581133 36.0106C0.674578 36.337 0.849595 36.6343 1.08969 36.8744C1.32979 37.1145 1.62706 37.2895 1.9535 37.3829C2.27994 37.4764 2.6248 37.4852 2.95557 37.4085L11.8676 35.3525C12.4152 35.2259 12.9162 34.948 13.3136 34.5505L31.4956 16.3685Z" fill="white"/>
</svg>
