<svg width="165" height="165" viewBox="0 0 165 165" fill="none" xmlns="http://www.w3.org/2000/svg">
<g clip-path="url(#clip0_60_88)">
<path d="M0.222656 123.333C0.222656 128.166 2.14249 132.801 5.55982 136.218C8.97715 139.636 13.612 141.556 18.4449 141.556H146C150.833 141.556 155.468 139.636 158.885 136.218C162.303 132.801 164.223 128.166 164.223 123.333V105.111H0.222656V123.333Z" fill="#FFCD05"/>
<path d="M0.222656 64.1111H164.223V105.111H0.222656V64.1111Z" fill="#ED1F24"/>
<path d="M146 23.1111H18.4449C13.612 23.1111 8.97715 25.0309 5.55982 28.4482C2.14249 31.8656 0.222656 36.5005 0.222656 41.3333L0.222656 64.1111H164.223V41.3333C164.223 36.5005 162.303 31.8656 158.885 28.4482C155.468 25.0309 150.833 23.1111 146 23.1111Z" fill="#141414"/>
</g>
<defs>
<clipPath id="clip0_60_88">
<rect width="164" height="164" fill="white" transform="translate(0.222656 0.333252)"/>
</clipPath>
</defs>
</svg>
