<svg width="165" height="165" viewBox="0 0 165 165" fill="none" xmlns="http://www.w3.org/2000/svg">
<g clip-path="url(#clip0_61_55)">
<path d="M18.8892 141.556H146.445C149.529 141.554 152.562 140.771 155.26 139.278H10.0742C12.7725 140.771 15.8055 141.554 18.8892 141.556Z" fill="#0D5EB0"/>
<path d="M39.3892 89.1665H0.666992V100.555H164.667V89.1665H64.4448H39.3892ZM0.666992 123.333C0.673066 124.108 0.726214 124.867 0.826437 125.611H164.512C164.609 124.867 164.661 124.108 164.667 123.333V114.222H0.666992V123.333ZM64.4448 64.111H164.667V75.4999H64.4448V64.111ZM64.4448 39.0554V50.4443H164.667V41.3332C164.661 40.5588 164.608 39.7995 164.508 39.0554H64.4448Z" fill="#EEEEEE"/>
<path d="M64.4448 50.4444H164.667V64.1111H64.4448V50.4444ZM0.666992 100.556H164.667V114.222H0.666992V100.556ZM10.0742 139.278H155.26C157.769 137.888 159.914 135.927 161.522 133.552C163.13 131.177 164.154 128.456 164.512 125.611H0.826437C1.18394 128.456 2.20777 131.176 3.81467 133.551C5.42158 135.926 7.56622 137.888 10.0742 139.278ZM0.666992 64.1111H25.7225V89.1666H0.666992V64.1111ZM64.4448 75.5V64.1111H39.3892V89.1666H164.667V75.5H64.4448ZM155.26 25.3889C152.562 23.896 149.528 23.1122 146.445 23.1111H18.8892C14.4529 23.114 10.1701 24.7352 6.84383 27.6706C3.51758 30.606 1.37642 34.654 0.821881 39.0555C0.73077 39.8026 0.666992 40.5589 0.666992 41.3333V50.4444H25.7225V25.3889H39.3892V50.4444H64.4448V39.0555H164.508C164.15 36.2106 163.126 33.4901 161.519 31.1154C159.912 28.7407 157.768 26.7786 155.26 25.3889Z" fill="#0D5EB0"/>
<path d="M39.3892 50.4444V23.1111H25.7225V50.4444H0.666992V64.1111H25.7225V89.1666H39.3892V64.1111H64.4448V50.4444H39.3892Z" fill="#EEEEEE"/>
</g>
<defs>
<clipPath id="clip0_61_55">
<rect width="164" height="164" fill="white" transform="translate(0.666992 0.333252)"/>
</clipPath>
</defs>
</svg>
