<svg width="165" height="165" viewBox="0 0 165 165" fill="none" xmlns="http://www.w3.org/2000/svg">
<g clip-path="url(#clip0_61_63)">
<path d="M0.555664 123.333C0.555664 128.166 2.4755 132.801 5.89283 136.218C9.31016 139.636 13.9451 141.555 18.7779 141.555H146.333C151.166 141.555 155.801 139.636 159.218 136.218C162.636 132.801 164.556 128.166 164.556 123.333V100.555H0.555664V123.333Z" fill="#138808"/>
<path d="M164.556 64.1111V41.3333C164.556 36.5005 162.636 31.8656 159.218 28.4482C155.801 25.0309 151.166 23.1111 146.333 23.1111H18.7779C13.9451 23.1111 9.31016 25.0309 5.89283 28.4482C2.4755 31.8656 0.555664 36.5005 0.555664 41.3333L0.555664 64.1111H164.556Z" fill="#FF9933"/>
<path d="M0.555664 62.594H164.556V102.077H0.555664V62.594Z" fill="#F7F7F7"/>
<path d="M82.5552 100.556C92.6191 100.556 100.777 92.3972 100.777 82.3333C100.777 72.2695 92.6191 64.1111 82.5552 64.1111C72.4914 64.1111 64.333 72.2695 64.333 82.3333C64.333 92.3972 72.4914 100.556 82.5552 100.556Z" fill="#000080"/>
<path d="M82.5557 97.7083C91.047 97.7083 97.9307 90.8246 97.9307 82.3333C97.9307 73.8419 91.047 66.9583 82.5557 66.9583C74.0643 66.9583 67.1807 73.8419 67.1807 82.3333C67.1807 90.8246 74.0643 97.7083 82.5557 97.7083Z" fill="#F7F7F7"/>
<path d="M83.0109 76.6387L82.5553 79.5998L82.0998 76.6387L82.5553 67.7554L83.0109 76.6387ZM78.7833 68.2519L80.642 76.9485L81.8492 79.6909L81.5212 76.7161L78.7833 68.2519ZM75.2664 69.7097L79.3118 77.6273L81.1887 79.9643L80.1044 77.1717L75.2664 69.7097ZM72.2461 72.0239L78.2048 78.6295L80.6238 80.4016L78.8517 77.9826L72.2461 72.0239ZM69.9319 75.0443L77.3939 79.8823L80.1864 80.9665L77.8494 79.0896L69.9319 75.0443ZM68.4741 78.5612L76.9383 81.299L79.9131 81.627L77.1707 80.4198L68.4741 78.5612ZM67.9775 82.3331L76.8609 82.7887L79.822 82.3331L76.8609 81.8776L67.9775 82.3331ZM68.4741 86.1051L77.1707 84.2465L79.9131 83.0393L76.9383 83.3673L68.4741 86.1051ZM69.9319 89.622L77.8494 85.5767L80.1864 83.6998L77.3939 84.784L69.9319 89.622ZM72.2461 92.6424L78.8517 86.6837L80.6238 84.2647L78.2048 86.0368L72.2461 92.6424ZM75.2664 94.9566L80.1044 87.4946L81.1887 84.702L79.3118 87.039L75.2664 94.9566ZM78.7833 96.4144L81.5212 87.9501L81.8492 84.9754L80.642 87.7178L78.7833 96.4144ZM82.5553 96.9109L83.0109 88.0276L82.5553 85.0665L82.0998 88.0276L82.5553 96.9109ZM86.3273 96.4144L84.4686 87.7178L83.2614 84.9754L83.5894 87.9501L86.3273 96.4144ZM89.8442 94.9566L85.7989 87.039L83.922 84.702L85.0062 87.4946L89.8442 94.9566ZM92.8645 92.6424L86.9059 86.0368L84.4869 84.2647L86.259 86.6837L92.8645 92.6424ZM95.1788 89.622L87.7168 84.784L84.9242 83.6998L87.2612 85.5767L95.1788 89.622ZM96.6365 86.1051L88.1723 83.3673L85.1975 83.0393L87.94 84.2465L96.6365 86.1051ZM97.1331 82.3331L88.2498 81.8776L85.2887 82.3331L88.2498 82.7887L97.1331 82.3331ZM96.6365 78.5612L87.94 80.4198L85.1975 81.627L88.1723 81.299L96.6365 78.5612ZM95.1788 75.0443L87.2612 79.0896L84.9242 80.9665L87.7168 79.8823L95.1788 75.0443ZM92.8645 72.0239L86.259 77.9826L84.4869 80.4016L86.9059 78.6295L92.8645 72.0239ZM89.8442 69.7097L85.0062 77.1717L83.922 79.9643L85.7989 77.6273L89.8442 69.7097ZM86.3273 68.2519L83.5894 76.7161L83.2614 79.6909L84.4686 76.9485L86.3273 68.2519Z" fill="#6666B3"/>
<path d="M80.5517 68.0244C81.0549 68.0244 81.4628 67.6165 81.4628 67.1133C81.4628 66.6101 81.0549 66.2021 80.5517 66.2021C80.0485 66.2021 79.6406 66.6101 79.6406 67.1133C79.6406 67.6165 80.0485 68.0244 80.5517 68.0244Z" fill="#000080"/>
<path d="M76.6797 69.0629C77.1829 69.0629 77.5908 68.655 77.5908 68.1518C77.5908 67.6486 77.1829 67.2407 76.6797 67.2407C76.1765 67.2407 75.7686 67.6486 75.7686 68.1518C75.7686 68.655 76.1765 69.0629 76.6797 69.0629Z" fill="#000080"/>
<path d="M73.208 71.0629C73.7112 71.0629 74.1191 70.655 74.1191 70.1518C74.1191 69.6486 73.7112 69.2407 73.208 69.2407C72.7048 69.2407 72.2969 69.6486 72.2969 70.1518C72.2969 70.655 72.7048 71.0629 73.208 71.0629Z" fill="#000080"/>
<path d="M70.374 73.8964C70.8772 73.8964 71.2851 73.4885 71.2851 72.9853C71.2851 72.4821 70.8772 72.0742 70.374 72.0742C69.8708 72.0742 69.4629 72.4821 69.4629 72.9853C69.4629 73.4885 69.8708 73.8964 70.374 73.8964Z" fill="#000080"/>
<path d="M68.375 77.3679C68.8782 77.3679 69.2861 76.96 69.2861 76.4568C69.2861 75.9536 68.8782 75.5457 68.375 75.5457C67.8718 75.5457 67.4639 75.9536 67.4639 76.4568C67.4639 76.96 67.8718 77.3679 68.375 77.3679Z" fill="#000080"/>
<path d="M67.3359 81.2399C67.8391 81.2399 68.247 80.832 68.247 80.3288C68.247 79.8256 67.8391 79.4177 67.3359 79.4177C66.8327 79.4177 66.4248 79.8256 66.4248 80.3288C66.4248 80.832 66.8327 81.2399 67.3359 81.2399Z" fill="#000080"/>
<path d="M67.3359 85.249C67.8391 85.249 68.247 84.8411 68.247 84.3379C68.247 83.8347 67.8391 83.4268 67.3359 83.4268C66.8327 83.4268 66.4248 83.8347 66.4248 84.3379C66.4248 84.8411 66.8327 85.249 67.3359 85.249Z" fill="#000080"/>
<path d="M68.375 89.121C68.8782 89.121 69.2861 88.7131 69.2861 88.2099C69.2861 87.7067 68.8782 87.2988 68.375 87.2988C67.8718 87.2988 67.4639 87.7067 67.4639 88.2099C67.4639 88.7131 67.8718 89.121 68.375 89.121Z" fill="#000080"/>
<path d="M70.374 92.5925C70.8772 92.5925 71.2851 92.1846 71.2851 91.6814C71.2851 91.1782 70.8772 90.7703 70.374 90.7703C69.8708 90.7703 69.4629 91.1782 69.4629 91.6814C69.4629 92.1846 69.8708 92.5925 70.374 92.5925Z" fill="#000080"/>
<path d="M73.208 95.426C73.7112 95.426 74.1191 95.0181 74.1191 94.5149C74.1191 94.0117 73.7112 93.6038 73.208 93.6038C72.7048 93.6038 72.2969 94.0117 72.2969 94.5149C72.2969 95.0181 72.7048 95.426 73.208 95.426Z" fill="#000080"/>
<path d="M76.6797 97.426C77.1829 97.426 77.5908 97.0181 77.5908 96.5149C77.5908 96.0117 77.1829 95.6038 76.6797 95.6038C76.1765 95.6038 75.7686 96.0117 75.7686 96.5149C75.7686 97.0181 76.1765 97.426 76.6797 97.426Z" fill="#000080"/>
<path d="M80.5517 98.4646C81.0549 98.4646 81.4628 98.0566 81.4628 97.5534C81.4628 97.0502 81.0549 96.6423 80.5517 96.6423C80.0485 96.6423 79.6406 97.0502 79.6406 97.5534C79.6406 98.0566 80.0485 98.4646 80.5517 98.4646Z" fill="#000080"/>
<path d="M84.5605 98.4646C85.0637 98.4646 85.4716 98.0566 85.4716 97.5534C85.4716 97.0502 85.0637 96.6423 84.5605 96.6423C84.0573 96.6423 83.6494 97.0502 83.6494 97.5534C83.6494 98.0566 84.0573 98.4646 84.5605 98.4646Z" fill="#000080"/>
<path d="M88.4326 97.426C88.9358 97.426 89.3437 97.0181 89.3437 96.5149C89.3437 96.0117 88.9358 95.6038 88.4326 95.6038C87.9294 95.6038 87.5215 96.0117 87.5215 96.5149C87.5215 97.0181 87.9294 97.426 88.4326 97.426Z" fill="#000080"/>
<path d="M91.9043 95.426C92.4075 95.426 92.8154 95.0181 92.8154 94.5149C92.8154 94.0117 92.4075 93.6038 91.9043 93.6038C91.4011 93.6038 90.9932 94.0117 90.9932 94.5149C90.9932 95.0181 91.4011 95.426 91.9043 95.426Z" fill="#000080"/>
<path d="M94.7373 92.5925C95.2405 92.5925 95.6484 92.1846 95.6484 91.6814C95.6484 91.1782 95.2405 90.7703 94.7373 90.7703C94.2341 90.7703 93.8262 91.1782 93.8262 91.6814C93.8262 92.1846 94.2341 92.5925 94.7373 92.5925Z" fill="#000080"/>
<path d="M96.7373 89.121C97.2405 89.121 97.6484 88.7131 97.6484 88.2099C97.6484 87.7067 97.2405 87.2988 96.7373 87.2988C96.2341 87.2988 95.8262 87.7067 95.8262 88.2099C95.8262 88.7131 96.2341 89.121 96.7373 89.121Z" fill="#000080"/>
<path d="M97.7763 85.249C98.2795 85.249 98.6875 84.8411 98.6875 84.3379C98.6875 83.8347 98.2795 83.4268 97.7763 83.4268C97.2731 83.4268 96.8652 83.8347 96.8652 84.3379C96.8652 84.8411 97.2731 85.249 97.7763 85.249Z" fill="#000080"/>
<path d="M97.7763 81.2399C98.2795 81.2399 98.6875 80.832 98.6875 80.3288C98.6875 79.8256 98.2795 79.4177 97.7763 79.4177C97.2731 79.4177 96.8652 79.8256 96.8652 80.3288C96.8652 80.832 97.2731 81.2399 97.7763 81.2399Z" fill="#000080"/>
<path d="M96.7373 77.3679C97.2405 77.3679 97.6484 76.96 97.6484 76.4568C97.6484 75.9536 97.2405 75.5457 96.7373 75.5457C96.2341 75.5457 95.8262 75.9536 95.8262 76.4568C95.8262 76.96 96.2341 77.3679 96.7373 77.3679Z" fill="#000080"/>
<path d="M94.7373 73.8964C95.2405 73.8964 95.6484 73.4885 95.6484 72.9853C95.6484 72.4821 95.2405 72.0742 94.7373 72.0742C94.2341 72.0742 93.8262 72.4821 93.8262 72.9853C93.8262 73.4885 94.2341 73.8964 94.7373 73.8964Z" fill="#000080"/>
<path d="M91.9043 71.0629C92.4075 71.0629 92.8154 70.655 92.8154 70.1518C92.8154 69.6486 92.4075 69.2407 91.9043 69.2407C91.4011 69.2407 90.9932 69.6486 90.9932 70.1518C90.9932 70.655 91.4011 71.0629 91.9043 71.0629Z" fill="#000080"/>
<path d="M88.4326 69.0629C88.9358 69.0629 89.3437 68.655 89.3437 68.1518C89.3437 67.6486 88.9358 67.2407 88.4326 67.2407C87.9294 67.2407 87.5215 67.6486 87.5215 68.1518C87.5215 68.655 87.9294 69.0629 88.4326 69.0629Z" fill="#000080"/>
<path d="M84.5605 68.0244C85.0637 68.0244 85.4716 67.6165 85.4716 67.1133C85.4716 66.6101 85.0637 66.2021 84.5605 66.2021C84.0573 66.2021 83.6494 66.6101 83.6494 67.1133C83.6494 67.6165 84.0573 68.0244 84.5605 68.0244Z" fill="#000080"/>
<path d="M82.5561 86.4334C84.8204 86.4334 86.6561 84.5978 86.6561 82.3334C86.6561 80.069 84.8204 78.2334 82.5561 78.2334C80.2917 78.2334 78.4561 80.069 78.4561 82.3334C78.4561 84.5978 80.2917 86.4334 82.5561 86.4334Z" fill="#000080"/>
</g>
<defs>
<clipPath id="clip0_61_63">
<rect width="164" height="164" fill="white" transform="translate(0.555664 0.333252)"/>
</clipPath>
</defs>
</svg>
