<svg width="164" height="165" viewBox="0 0 164 165" fill="none" xmlns="http://www.w3.org/2000/svg">
<path d="M164 123.333C164 128.166 162.08 132.801 158.663 136.218C155.245 139.636 150.61 141.556 145.777 141.556H109.333V23.1111H145.777C150.61 23.1111 155.245 25.0309 158.663 28.4482C162.08 31.8656 164 36.5005 164 41.3333V123.333Z" fill="#CE2B37"/>
<path d="M18.2222 23.1111C13.3894 23.1111 8.7545 25.0309 5.33717 28.4482C1.91984 31.8656 0 36.5005 0 41.3333L0 123.333C0 128.166 1.91984 132.801 5.33717 136.218C8.7545 139.636 13.3894 141.556 18.2222 141.556H54.6667V23.1111H18.2222Z" fill="#009246"/>
<path d="M54.667 23.1111H109.334V141.556H54.667V23.1111Z" fill="#EEEEEE"/>
</svg>
