<svg width="164" height="165" viewBox="0 0 164 165" fill="none" xmlns="http://www.w3.org/2000/svg">
<path d="M164 123.333C164 128.166 162.08 132.801 158.663 136.218C155.245 139.636 150.611 141.556 145.778 141.556H18.2222C13.3894 141.556 8.75449 139.636 5.33717 136.218C1.91984 132.801 0 128.166 0 123.333V41.3333C0 36.5005 1.91984 31.8656 5.33717 28.4482C8.75449 25.0309 13.3894 23.1111 18.2222 23.1111H145.778C150.611 23.1111 155.245 25.0309 158.663 28.4482C162.08 31.8656 164 36.5005 164 41.3333V123.333Z" fill="#EEEEEE"/>
<path d="M82.0002 114.222C99.612 114.222 113.889 99.945 113.889 82.3332C113.889 64.7215 99.612 50.4443 82.0002 50.4443C64.3885 50.4443 50.1113 64.7215 50.1113 82.3332C50.1113 99.945 64.3885 114.222 82.0002 114.222Z" fill="#ED1B2F"/>
</svg>
