<svg width="165" height="165" viewBox="0 0 165 165" fill="none" xmlns="http://www.w3.org/2000/svg">
<g clip-path="url(#clip0_61_2)">
<path d="M164.556 123.333C164.556 128.166 162.636 132.801 159.218 136.218C155.801 139.636 151.166 141.556 146.333 141.556H18.7779C13.9451 141.556 9.31016 139.636 5.89283 136.218C2.4755 132.801 0.555664 128.166 0.555664 123.333V105.111H164.556V123.333Z" fill="#CE2028"/>
<path d="M0.555664 59.5554H164.556V105.111H0.555664V59.5554Z" fill="#22408C"/>
<path d="M146.333 23.1111H18.7779C13.9451 23.1111 9.31016 25.0309 5.89283 28.4482C2.4755 31.8656 0.555664 36.5005 0.555664 41.3333L0.555664 59.5555H164.556V41.3333C164.556 36.5005 162.636 31.8656 159.218 28.4482C155.801 25.0309 151.166 23.1111 146.333 23.1111Z" fill="#EEEEEE"/>
</g>
<defs>
<clipPath id="clip0_61_2">
<rect width="164" height="164" fill="white" transform="translate(0.555664 0.333252)"/>
</clipPath>
</defs>
</svg>
